<svg width="80" height="80" viewBox="0 0 80 80" fill="none" xmlns="http://www.w3.org/2000/svg">
<g clip-path="url(#clip0_3420_25597)">
<path d="M1.69395 39.5216C1.69209 46.2432 3.44837 52.8063 6.78791 58.5911L1.37457 78.3561L21.6015 73.0525C27.1961 76.0981 33.4643 77.694 39.8341 77.6944H39.8508C60.8788 77.6944 77.996 60.5833 78.005 39.5517C78.009 29.3604 74.0437 19.7771 66.8394 12.5672C59.6363 5.35791 50.0564 1.38551 39.8493 1.38086C18.8189 1.38086 1.70294 18.4909 1.69426 39.5216" fill="url(#paint0_linear_3420_25597)"/>
<path d="M0.331783 39.5088C0.329612 46.4722 2.14884 53.2701 5.60744 59.262L0 79.7355L20.9522 74.2419C26.7253 77.3895 33.2251 79.049 39.8391 79.0515H39.8561C61.6384 79.0515 79.3705 61.325 79.3798 39.5405C79.3836 28.9829 75.2757 19.0552 67.8139 11.587C60.3513 4.11969 50.4288 0.00434109 39.8561 0C18.0701 0 0.340465 17.724 0.331783 39.5088ZM12.8096 58.2301L12.0273 56.9882C8.7386 51.7591 7.00279 45.7163 7.00527 39.5113C7.01209 21.4043 21.7482 6.67287 39.8685 6.67287C48.6437 6.67659 56.8905 10.0974 63.0933 16.3039C69.2958 22.511 72.7088 30.7622 72.7067 39.538C72.6986 57.645 57.9622 72.3783 39.8561 72.3783H39.8431C33.9476 72.3752 28.1656 70.7919 23.1231 67.8L21.9231 67.0884L9.48961 70.3482L12.8096 58.2301Z" fill="url(#paint1_linear_3420_25597)"/>
<path d="M29.9777 22.9911C29.2378 21.3467 28.4592 21.3135 27.7557 21.2847C27.1795 21.2599 26.5209 21.2618 25.8629 21.2618C25.2043 21.2618 24.1343 21.5095 23.2298 22.4971C22.3243 23.4856 19.773 25.8745 19.773 30.7331C19.773 35.592 23.3119 40.2875 23.8053 40.947C24.2992 41.6053 30.6372 51.8949 40.675 55.8534C49.0174 59.143 50.715 58.4887 52.5256 58.3238C54.3364 58.1594 58.3687 55.9355 59.1913 53.6295C60.0146 51.3238 60.0146 49.3473 59.7678 48.9343C59.5209 48.5228 58.8623 48.2757 57.8747 47.7821C56.8868 47.2881 52.0316 44.899 51.1265 44.5693C50.2211 44.24 49.5628 44.0757 48.9042 45.0645C48.2456 46.0518 46.3544 48.2757 45.778 48.9343C45.2022 49.5945 44.6257 49.6766 43.6384 49.1827C42.6502 48.6872 39.4698 47.6456 35.6964 44.2816C32.7606 41.6639 30.7786 38.4314 30.2025 37.4425C29.6264 36.4552 30.1408 35.92 30.636 35.428C31.0797 34.9855 31.6239 34.2748 32.1181 33.6983C32.6105 33.1216 32.7749 32.7101 33.1042 32.0515C33.4338 31.3923 33.2688 30.8155 33.0223 30.3216C32.7749 29.8276 30.8558 24.9436 29.9777 22.9911Z" fill="white"/>
</g>
<defs>
<linearGradient id="paint0_linear_3420_25597" x1="3832.89" y1="7698.9" x2="3832.89" y2="1.38086" gradientUnits="userSpaceOnUse">
<stop stop-color="#1FAF38"/>
<stop offset="1" stop-color="#60D669"/>
</linearGradient>
<linearGradient id="paint1_linear_3420_25597" x1="3968.99" y1="7973.55" x2="3968.99" y2="0" gradientUnits="userSpaceOnUse">
<stop stop-color="#F9F9F9"/>
<stop offset="1" stop-color="white"/>
</linearGradient>
<clipPath id="clip0_3420_25597">
<rect width="79.3798" height="80" fill="white"/>
</clipPath>
</defs>
</svg>
